<?xml version="1.0" standalone="no"?>
<!DOCTYPE svg PUBLIC "-//W3C//DTD SVG 20010904//EN"
 "http://www.w3.org/TR/2001/REC-SVG-20010904/DTD/svg10.dtd">
<svg version="1.0" xmlns="http://www.w3.org/2000/svg"
 width="1292.000000pt" height="979.000000pt" viewBox="0 0 1292.000000 979.000000"
 preserveAspectRatio="xMidYMid meet">

<g transform="translate(0.000000,979.000000) scale(0.100000,-0.100000)"
fill="#000000" stroke="none">
<path d="M1795 8361 c-75 -34 -134 -111 -150 -196 -4 -22 -7 -77 -7 -122 0
-77 -10 -106 -22 -65 -2 9 -4 6 -3 -8 2 -15 8 -24 15 -22 8 1 11 -2 7 -8 -3
-6 -11 -8 -16 -5 -16 10 -16 -6103 0 -6163 21 -75 94 -153 174 -187 33 -14
213 -15 1625 -16 4074 -1 6935 2 6929 7 -3 4 -21 10 -39 14 l-33 8 36 1 c19 1
41 -5 48 -11 11 -10 13 -10 7 0 -5 7 -1 12 9 12 9 0 14 -4 10 -9 -3 -5 0 -13
6 -17 8 -4 9 -3 5 4 -4 7 -2 13 3 13 6 1 17 2 24 3 6 1 20 -2 31 -7 12 -6 16
-6 12 2 -5 7 173 11 601 13 571 3 610 4 643 22 49 26 98 74 123 121 l22 40 0
3205 0 3205 -22 41 c-29 54 -101 117 -151 132 -30 9 -1213 12 -4943 12 -4728
0 -4905 -1 -4944 -19z m5180 -1395 c199 -52 412 -179 550 -329 193 -208 292
-446 302 -729 7 -167 -7 -268 -53 -408 -99 -298 -308 -536 -589 -671 -609
-293 -1331 1 -1571 638 -62 165 -83 422 -49 601 89 464 455 829 922 917 124
23 361 14 488 -19z m-2495 -3171 l0 -55 -245 0 -245 0 0 -170 0 -170 220 0
220 0 0 -55 0 -55 -220 0 -220 0 0 -230 0 -231 -62 3 -63 3 -3 508 -2 507 310
0 310 0 0 -55z m400 -170 l0 -225 275 0 275 0 0 225 0 225 60 0 60 0 0 -510 0
-510 -60 0 -60 0 0 230 0 230 -275 0 -275 0 0 -230 0 -230 -60 0 -60 0 0 510
0 510 60 0 60 0 0 -225z m1110 -285 l0 -510 -60 0 -60 0 0 510 0 510 60 0 60
0 0 -510z m2618 458 l-3 -53 -242 -3 -243 -2 0 -170 0 -170 220 0 220 0 0 -55
0 -55 -220 0 -220 0 0 -230 0 -231 -62 3 -63 3 -3 508 -2 507 310 0 311 0 -3
-52z m402 -403 l0 -455 240 0 240 0 0 -55 0 -55 -300 0 -300 0 0 510 0 510 60
0 60 0 0 -455z m860 -55 l0 -510 -60 0 -60 0 0 510 0 510 60 0 60 0 0 -510z
m-3023 461 c62 -28 135 -102 154 -157 22 -61 17 -209 -8 -264 -21 -47 -95
-123 -132 -135 -11 -3 -21 -11 -21 -16 0 -5 49 -100 109 -212 l110 -202 -66
-3 c-38 -2 -71 2 -77 8 -6 6 -56 95 -111 198 l-100 187 -128 3 -127 3 0 -201
0 -200 -60 0 -60 0 0 511 0 510 233 -3 c219 -3 235 -4 284 -27z m853 -456 l0
-55 -225 0 -225 0 0 48 c0 27 3 52 7 55 3 4 105 7 225 7 l218 0 0 -55z"/>
<path d="M6499 6955 c-352 -67 -639 -279 -798 -590 -82 -160 -120 -318 -121
-501 -1 -511 329 -943 826 -1081 92 -26 112 -28 284 -27 168 0 194 3 282 26
387 105 692 410 795 796 24 87 27 116 27 277 1 166 -1 187 -26 277 -34 122
-73 214 -129 306 -154 251 -400 430 -690 503 -111 27 -342 35 -450 14z m468
-345 c27 -51 29 -87 7 -138 l-15 -37 38 36 c21 20 48 42 60 48 27 14 98 14
124 0 34 -17 12 -27 -50 -22 -56 5 -60 4 -95 -28 l-37 -34 60 -61 c111 -115
201 -340 204 -514 2 -96 -11 -140 -49 -161 -37 -19 -103 16 -156 86 l-43 54
-21 -122 c-47 -273 -124 -457 -189 -457 -53 0 -82 95 -92 298 l-6 133 -21 -20
c-67 -61 -138 -77 -172 -40 -15 17 -19 37 -19 104 0 56 -3 81 -11 77 -5 -4
-39 -28 -75 -54 -81 -58 -207 -125 -253 -134 -125 -23 -115 67 27 256 22 30
85 100 139 154 54 55 98 101 98 102 0 2 -15 0 -33 -3 -49 -8 -167 13 -197 35
-67 51 -11 140 133 211 197 97 470 136 598 86 12 -4 20 3 29 25 16 38 8 92
-19 126 -21 26 -19 48 2 41 6 -2 21 -23 34 -47z"/>
<path d="M6450 3520 l0 -202 153 3 c139 4 157 6 201 29 66 34 91 82 91 170 -1
82 -24 133 -78 168 -39 26 -46 27 -204 30 l-163 4 0 -202z"/>
</g>
</svg>
